<svg xmlns="http://www.w3.org/2000/svg" xml:space="preserve" viewBox="0 0 329.15 100"><path d="M13.593 0S0 19.286 0 50s13.593 50 13.593 50H132.15V0z" style="fill:#e2001a"/><path d="M13.51 29.333h15.614c9.375 0 12.578 4.54 12.578 10.006 0 4.87-2.914 7.569-5.829 8.599 3.997.758 7.888 3.897 7.888 10.062 0 7.735-6.348 12.711-15.091 12.711H13.51V29.333m13.378 17.413c4.233 0 7.779-1.729 7.779-6.003 0-3.192-2.171-5.732-7.26-5.732H21v11.735zm1.029 18.337c3.888 0 8.177-1.729 8.177-6.761 0-4.324-2.292-6.437-6.923-6.437h-8.174v13.198h6.92M52.841 29.333h7.49v27.153c0 5.301 3.088 8.599 8.917 8.599s8.923-3.301 8.923-8.599V29.333h7.49V58.05c0 8.929-7.091 13.469-16.413 13.469s-16.41-4.54-16.41-13.469c.003 0 .003-28.717.003-28.717M96.631 62.487c2.914 1.136 6.174 2.431 10.867 2.431 6.174 0 7.378-3.354 7.378-5.625 0-2.867-1.717-4.655-5.838-6.218l-4.858-1.844c-5.72-2.159-9.776-4.54-9.776-10.814 0-6.543 5.316-11.897 15.779-11.897 5.773 0 9.378 1.133 11.838 2.268l-2.575 6.333c-2.454-1.354-5.487-2.431-9.661-2.431-3.829 0-6.861 1.835-6.861 4.864 0 2.218 1.145 3.625 4.805 5.029l5.891 2.274c6.404 2.487 9.375 5.678 9.375 11.463 0 10.87-8.631 13.201-15.035 13.201-6.177 0-10.867-1.625-14.068-3.513l2.746-5.522h-.007z" style="fill:#fff"/><path d="M146.65 2.5h180v95h-180z" style="fill:#fff;stroke:#e30613;stroke-width:5;stroke-miterlimit:10"/><path d="m206.383 49.585 5.243-7.818c5.061-7.545 6.81-10.765 7.36-14.078.092-.827.184-1.656.184-2.483h-32.569V14.809h44.714c.277 2.114.553 4.785.553 7.729 0 8.279-1.291 12.419-11.226 27.139l-6.257 9.293c-5.151 7.637-5.427 12.145-5.427 26.22h-12.88c.001-16.653 1.749-22.907 10.305-35.605M242.262 75.532h17.572V26.586l-16.285 9.201-4.416-8.559 22.726-12.419h10.304v60.723h14.075v9.659h-43.977v-9.659z" style="fill:#e30613"/></svg>