<?xml version="1.0" encoding="utf-8"?>
<!-- Generator: Adobe Illustrator 16.0.4, SVG Export Plug-In . SVG Version: 6.00 Build 0)  -->
<!DOCTYPE svg PUBLIC "-//W3C//DTD SVG 1.1//EN" "http://www.w3.org/Graphics/SVG/1.1/DTD/svg11.dtd">
<svg version="1.1" id="Calque_1" xmlns="http://www.w3.org/2000/svg" xmlns:xlink="http://www.w3.org/1999/xlink" x="0px" y="0px"
	 width="424.089px" height="153.688px" viewBox="0 0 424.089 153.688" enable-background="new 0 0 424.089 153.688"
	 xml:space="preserve">
<rect fill="#E5162B" width="424.089" height="153.688"/>
<rect x="323.143" y="29.171" fill="#FFFFFF" width="14.464" height="14.467"/>
<path fill="#FFFFFF" d="M323.143,49.187c-1.373-0.006-15.067-1.635-20.262,8.879l0.006-7.587H279.74l-12.806,38.417l-13.145-38.417
	h-15.531l14.562,38.557h-28.956V29.164h-16.076v73.066h49.842c0,0,0.505,1.194,0.613,1.566c0.944,3.174-0.875,8.292-6.044,8.292
	c-2.933,0-5.86,0.011-8.702,0.011v12.427c2.639,0,9.778-0.026,12.817-0.026c6.381,0,12.116-4.628,15.368-13.271l17.387-46.92v37.915
	h14.538V80.15c0-20.61,17.899-17.467,19.53-17.439v39.52h14.46V58.09h-14.456V49.187z"/>
<polygon fill="#FFFFFF" points="354.447,35.021 355.527,35.021 355.527,32.632 357.921,32.632 357.921,31.555 355.527,31.555 
	355.527,29.17 354.447,29.17 354.447,31.555 352.07,31.555 352.07,32.632 354.447,32.632 "/>
<polygon fill="#FFFFFF" points="354.447,43.637 355.527,43.637 355.527,41.25 357.921,41.25 357.921,40.175 355.527,40.175 
	355.527,37.795 354.447,37.795 354.447,40.175 352.07,40.175 352.07,41.25 354.447,41.25 "/>
<polygon fill="#FFFFFF" points="371.695,35.021 372.795,35.021 372.795,32.632 375.168,32.632 375.168,31.555 372.795,31.555 
	372.795,29.17 371.695,29.17 371.695,31.555 369.32,31.555 369.32,32.632 371.695,32.632 "/>
<polygon fill="#FFFFFF" points="363.088,35.021 364.153,35.021 364.153,32.632 366.532,32.632 366.532,31.555 364.153,31.555 
	364.153,29.17 363.088,29.17 363.088,31.555 360.69,31.555 360.69,32.632 363.088,32.632 "/>
<polygon fill="#FFFFFF" points="363.088,43.637 364.153,43.637 364.153,41.25 366.532,41.25 366.532,40.175 364.153,40.175 
	364.153,37.795 363.088,37.795 363.088,40.175 360.69,40.175 360.69,41.25 363.088,41.25 "/>
<polygon fill="#FFFFFF" points="46.873,53.057 28.896,53.057 28.896,43.614 75.29,43.614 75.29,53.057 57.312,53.057 
	57.312,102.268 46.873,102.268 "/>
<path fill="#FFFFFF" d="M133.688,97.96c-7.125,3.81-15.242,5.798-24.275,5.798c-18.059,0-30.983-12.262-30.983-30.567
	c0-18.808,12.924-31.068,30.983-31.068c8.949,0,16.985,1.905,23.115,7.373l-7.706,7.788c-3.725-3.647-9.442-5.717-15.325-5.717
	c-12.097,0-20.131,9.278-20.131,20.959c0,12.512,8.034,21.79,20.131,21.79c5.304,0,10.106-0.995,13.751-3.065V77.415h-12.011V67.97
	h22.451V97.96z"/>
<polygon fill="#FFFFFF" points="137.57,43.615 149.583,43.615 165.571,87.937 182.057,43.615 193.325,43.615 169.628,102.268 
	160.601,102.268 "/>
<path fill="#FFFFFF" d="M347.324,57.896c1.477-2.216,3.362-3.993,5.649-5.338c2.289-1.341,4.863-2.298,7.725-2.87
	c2.858-0.567,5.737-0.855,8.628-0.855c2.627,0,5.285,0.186,7.978,0.555c2.689,0.369,5.146,1.092,7.367,2.163
	c2.223,1.075,4.04,2.568,5.452,4.483c1.414,1.913,2.119,4.446,2.119,7.601v27.083c0,2.35,0.136,4.6,0.404,6.745
	c0.27,2.151,0.74,3.761,1.414,4.835h-14.536c-0.27-0.807-0.489-1.627-0.657-2.468c-0.169-0.839-0.284-1.695-0.353-2.567
	c-2.288,2.351-4.981,3.994-8.076,4.932c-3.096,0.94-6.257,1.411-9.487,1.411c-2.493,0-4.812-0.302-6.968-0.906
	c-2.154-0.605-4.038-1.543-5.651-2.821c-1.615-1.274-2.876-2.886-3.787-4.832c-0.907-1.948-1.361-4.262-1.361-6.948
	c0-2.952,0.521-5.386,1.564-7.299c1.044-1.912,2.387-3.438,4.038-4.581c1.647-1.142,3.532-1.997,5.653-2.568
	c2.12-0.57,4.256-1.022,6.41-1.359c2.151-0.334,4.273-0.604,6.358-0.804c2.086-0.202,3.937-0.504,5.555-0.906
	c1.613-0.404,2.889-0.989,3.835-1.763c0.941-0.77,1.378-1.896,1.31-3.374c0-1.543-0.251-2.768-0.756-3.673
	c-0.505-0.908-1.177-1.611-2.02-2.116c-0.839-0.503-1.815-0.837-2.926-1.006c-1.112-0.167-2.307-0.251-3.584-0.251
	c-2.827,0-5.048,0.603-6.661,1.812c-1.618,1.207-2.56,3.221-2.829,6.04h-14.333C345,62.896,345.84,60.11,347.324,57.896
	 M375.637,78.082c-0.907,0.304-1.884,0.553-2.928,0.755c-1.044,0.201-2.136,0.372-3.278,0.503c-1.145,0.137-2.291,0.304-3.433,0.503
	c-1.078,0.203-2.137,0.475-3.182,0.807c-1.044,0.338-1.951,0.79-2.726,1.359c-0.772,0.572-1.396,1.293-1.868,2.166
	c-0.469,0.874-0.704,1.978-0.704,3.322c0,1.276,0.235,2.35,0.704,3.222c0.473,0.871,1.112,1.561,1.919,2.063
	c0.81,0.503,1.751,0.856,2.829,1.057c1.072,0.204,2.185,0.302,3.33,0.302c2.826,0,5.014-0.469,6.561-1.409
	c1.547-0.94,2.691-2.065,3.432-3.374c0.742-1.308,1.194-2.633,1.363-3.977c0.167-1.342,0.251-2.417,0.251-3.222v-5.336
	C377.304,77.363,376.548,77.781,375.637,78.082"/>
</svg>
