<?xml version="1.0" encoding="utf-8"?>
<!-- Svg Vector Icons : http://www.onlinewebfonts.com/icon -->
<!DOCTYPE svg PUBLIC "-//W3C//DTD SVG 1.1//EN" "http://www.w3.org/Graphics/SVG/1.1/DTD/svg11.dtd">
<svg version="1.1" xmlns="http://www.w3.org/2000/svg" xmlns:xlink="http://www.w3.org/1999/xlink" x="0px" y="0px" viewBox="0 0 256 256" enable-background="new 0 0 256 256" xml:space="preserve">
<metadata> Svg Vector Icons : http://www.onlinewebfonts.com/icon </metadata>
<g><g><g><path fill="#000000" d="M121.6,127.4c2,0.5,3.9,0.9,5.6,1.3c0.6,0.1,1.2,0.3,1.7,0.4l-0.2-4.9C125.8,125.4,123.4,126.5,121.6,127.4z"/><path fill="#000000" d="M134.7,154.2c2.3-0.7,4.6-1.2,6.6-1.6c1.6-0.3,3.7-0.8,5.1-1.3c-1.3-1.8-6.2-3.6-11.5-5L134.7,154.2z"/><path fill="#000000" d="M246,95.1L208.9,36l-46,28.9V10.6H93.1v54.4L47.1,36L10,95.1L62.4,128L10,160.9l37.1,59l46-28.9v54.4h69.7v-54.4l46,28.9l37.1-59l-52.4-33L246,95.1z M166.7,100.7c-0.6,9.1-11.1,13.1-22.1,17.4l-8.9,3.5l-0.4,9.2c12.8,3.3,24.9,7.9,26.2,19.2c2,13.5-11,16.3-17.2,17.6l-10.2,2l-0.7,35.3c0,0.1-0.1,0.1-0.1,0.1l0,0h-2.6l-0.6-29.8c-5.9,14.4-8.6,8-9.3,4.7c-1.6-7-0.9-12.9,2-17.4c1.8-2.8,4.2-4.7,6.8-6.1l-0.3-11.4c-2.1-0.5-4.1-1-5.6-1.3c-12.8-2.9-22.9-5.2-23.4-14.2c-0.5-7.7,6.1-12.9,27.6-21.2l-0.5-10c0-0.7-0.1-1.5-0.1-2.2c-3.9-0.1-7.8-0.2-11.2-0.3c-1.4,0-2.8,0-4.2-0.1c-1.7,1.5-3.9,2.5-6.3,2.5c-5.2,0-16.4-4.2-16.4-9.4v-4.8c0-5.2,11.2-9.4,16.4-9.4c4,0,7.4,2.5,8.8,6c0.6,0,1.3,0,2,0c3.2,0,6.4,0.1,9.6,0.2c0-0.1,0-0.2,0-0.3c-0.3-3-0.8-5.9-1.2-8.9c-0.5-3-1-5.9-1.7-8.9c-1.2-5,1.9-10.1,7-11.3c5-1.2,10.1,1.9,11.3,7c0.3,1.5,0.3,3,0,4.3c-0.7,3-1.2,5.9-1.7,8.9c-0.5,3-0.9,5.9-1.2,8.9c0,0.3-0.1,0.7-0.1,1c6.6,0.7,12.5,1.9,17,4.1c0.1,0,0.2,0.1,0.3,0.1C158.4,87.3,167.3,92.2,166.7,100.7z"/><path fill="#000000" d="M136.9,96.6c0,0.5-0.1,1.1-0.1,1.6l-0.3,6.7c0.9-0.3,1.8-0.7,2.7-1c2.9-1.1,7.2-2.7,10.1-4.2c-0.3-0.2-0.6-0.4-1-0.6C145.7,97.8,141.6,97.1,136.9,96.6z"/></g></g></g>
</svg>