<?xml version="1.0" encoding="utf-8"?>
<!-- Svg Vector Icons : http://www.onlinewebfonts.com/icon -->
<!DOCTYPE svg PUBLIC "-//W3C//DTD SVG 1.1//EN" "http://www.w3.org/Graphics/SVG/1.1/DTD/svg11.dtd">
<svg version="1.1" xmlns="http://www.w3.org/2000/svg" xmlns:xlink="http://www.w3.org/1999/xlink" x="0px" y="0px" viewBox="0 0 256 256" enable-background="new 0 0 256 256" xml:space="preserve">
<metadata> Svg Vector Icons : http://www.onlinewebfonts.com/icon </metadata>
<g><g><g><path fill="#000000" d="M214.5,30v27.8l-3.5-2.9c-6.6-5.3-11.7-8.3-18.9-10.6c-8.3-2.8-8.1-2.8-74.5-2.6c-56.5,0.1-61.1,0.2-64.6,1c-20.6,4.9-36.2,20.1-41.7,40.6c-1.1,4.3-1.3,5.7-1.3,13.4c0,7.7,0.1,9.1,1.3,13.4c5.1,18.8,18.3,32.9,36.4,39c10.8,3.6,23.9,3.5,35-0.2c10.9-3.7,21.4-11.8,27.8-21.3c3.8-5.7,5.1-6.7,9.1-6.9c4-0.1,6.2,1.3,9.5,6.3c11.1,16.5,29.6,25.9,48.8,24.8c12.9-0.7,22.7-4.7,33.2-13.3l3.6-2.9l-0.2,27.5c-0.1,24.7-0.2,27.8-1,30.5c-7.7,25.9-36.6,37.2-59.1,23.2c-4.1-2.6-10.1-8.7-12.7-12.9c-1.8-3.1-3.9-8-4.5-10.8l-0.3-1.6l7.5-0.2c7-0.2,7.7-0.3,10.1-1.5c5.7-3,8.8-7.9,8.8-14.1c0-6.2-3.1-11.1-8.8-14.2l-2.6-1.3H120H88.2l-2.5,1.2c-3.1,1.6-6.4,4.9-7.8,7.8c-0.8,1.8-1.1,3.2-1.1,6.5c0,3.2,0.2,4.7,1.1,6.5c1.3,3,4.7,6.3,7.8,7.8c2.3,1.1,3.2,1.2,10.7,1.3c4.5,0.1,8.2,0.2,8.2,0.3c0,1.6,1.9,10,3.2,13.9c7.8,24.1,27.6,41.8,53.3,47.5c6.9,1.5,20.8,1.5,28,0c13.2-2.9,24.9-9,34.4-18c10.6-10,17-21.2,20.8-36.3l1.3-5.2l0.1-95.7L246,2.1h-15.8h-15.8L214.5,30L214.5,30z M182.1,57.9c7.7,1.5,14,4.7,19.7,10c5.7,5.4,9.2,11.1,11.3,18.6c1.5,5.5,1.5,14.6,0,20.1c-2.1,7.5-5.6,13.2-11.3,18.6c-4.1,3.8-8.2,6.4-13.2,8.3c-13,4.7-27.3,2.4-38.2-6.3c-3.9-3.2-6-5.4-9.5-10.8c-1.3-1.9-3.2-4.3-4.2-5.2c-7.5-6.8-18.3-8.4-27.5-4c-4.5,2.1-7.9,5.2-11.5,10.6c-4.8,7.2-11.1,12.4-18.7,15.4c-21.8,8.6-46.1-3.7-52.5-26.7c-1.3-4.5-1.3-15.2,0-19.7c4.1-15,16.7-26.5,31.4-29c1.4-0.2,29.1-0.4,61.5-0.5C168.4,57.2,179.1,57.3,182.1,57.9z"/></g></g></g>
</svg>