<?xml version="1.0" encoding="utf-8"?>
<!-- Svg Vector Icons : http://www.onlinewebfonts.com/icon -->
<!DOCTYPE svg PUBLIC "-//W3C//DTD SVG 1.1//EN" "http://www.w3.org/Graphics/SVG/1.1/DTD/svg11.dtd">
<svg version="1.1" xmlns="http://www.w3.org/2000/svg" xmlns:xlink="http://www.w3.org/1999/xlink" x="0px" y="0px" viewBox="0 0 256 256" enable-background="new 0 0 256 256" xml:space="preserve">
<metadata> Svg Vector Icons : http://www.onlinewebfonts.com/icon </metadata>
<g><g><path fill="#000000" d="M93,68V44.6c0-4.1,3.4-7.5,7.5-7.5h52.8c4.1,0,7.5,3.3,7.5,7.5V68h17.8V32.5c0-5.5-4.5-10-10-10H85.1c-5.5,0-10,4.5-10,10V68H93z"/><path fill="#000000" d="M158.1,143.2H138v-20.1H118v20.1H98v19.9H118v20.1H138v-20.1h20.1V143.2z"/><path fill="#000000" d="M221,72.3H35c-13.8,0-25,11.2-25,25v111.1c0,13.8,11.2,25,25,25H221c13.8,0,25-11.2,25-25V97.4C246,83.5,234.8,72.3,221,72.3z M43.7,219.1h-8.5V87.3h8.5V219.1z M128,205.2c-28.1,0-51-22.8-51-51c0-28.1,22.8-51,51-51c28.2,0,50.9,22.8,50.9,51C178.9,182.4,156.2,205.2,128,205.2z M218.3,219.1h-8.5V87.3h8.5V219.1z"/></g></g>
</svg>